<?xml version="1.0" standalone="no"?>
<!DOCTYPE svg PUBLIC "-//W3C//DTD SVG 20010904//EN"
 "http://www.w3.org/TR/2001/REC-SVG-20010904/DTD/svg10.dtd">
<svg version="1.0" xmlns="http://www.w3.org/2000/svg"
 width="700.000000pt" height="700.000000pt" viewBox="0 0 700.000000 700.000000"
 preserveAspectRatio="xMidYMid meet">
<metadata>
Created by potrace 1.14, written by Peter Selinger 2001-2017
</metadata>
<g transform="translate(0.000000,700.000000) scale(0.100000,-0.100000)"
fill="#000000" stroke="none">
<path d="M950 6440 c-50 -9 -95 -35 -118 -67 -39 -55 -138 -390 -186 -633 -3
-14 -23 -109 -45 -211 -22 -102 -43 -201 -46 -220 -3 -19 -17 -88 -30 -154
-21 -107 -39 -202 -51 -275 -3 -14 -11 -59 -19 -100 -8 -41 -17 -90 -20 -107
-3 -18 -7 -48 -10 -65 -3 -18 -8 -44 -10 -58 -3 -14 -8 -36 -10 -50 -3 -14 -7
-40 -10 -59 -2 -18 -7 -41 -9 -50 -3 -9 -8 -36 -11 -61 -3 -25 -12 -81 -20
-125 -8 -44 -17 -93 -19 -110 -5 -29 -9 -52 -21 -122 -3 -18 -7 -45 -9 -60 -3
-16 -12 -68 -20 -118 -8 -49 -18 -112 -22 -140 -3 -27 -8 -53 -10 -56 -1 -3
-6 -28 -9 -55 -3 -27 -8 -60 -11 -74 -3 -13 -7 -40 -10 -60 -2 -19 -6 -46 -9
-60 -2 -14 -7 -38 -9 -55 -23 -139 -36 -226 -41 -260 -2 -22 -7 -53 -10 -70
-8 -47 -14 -86 -20 -130 -4 -22 -11 -69 -16 -105 -6 -36 -13 -82 -15 -104 -3
-21 -9 -57 -13 -80 -19 -100 11 -212 75 -283 41 -45 112 -85 419 -238 338
-167 753 -352 1028 -456 45 -18 100 -39 122 -49 22 -9 76 -29 120 -45 44 -15
84 -32 89 -36 6 -5 16 -9 24 -9 29 0 211 -73 337 -135 131 -64 337 -182 343
-197 2 -4 8 -8 12 -8 10 0 192 -122 350 -234 332 -235 465 -312 516 -297 75
21 174 84 574 363 374 261 611 393 870 483 276 97 846 328 1080 438 41 19 98
45 125 57 104 46 552 274 600 305 27 18 59 43 71 56 57 65 90 166 81 242 -5
37 -40 275 -51 347 -3 14 -7 45 -11 70 -12 84 -16 105 -25 160 -10 59 -14 87
-25 163 -4 27 -8 59 -11 70 -5 29 -22 131 -29 182 -3 22 -7 49 -10 60 -4 18
-37 227 -50 315 -3 19 -12 71 -20 115 -12 67 -39 224 -61 360 -2 17 -25 143
-49 280 -25 138 -47 264 -50 280 -112 630 -274 1318 -340 1445 -15 28 -50 62
-81 79 -105 53 -561 -52 -959 -221 -801 -341 -1441 -888 -1630 -1392 l-19 -49
-17 39 c-52 121 -131 268 -171 319 -4 6 -35 46 -69 90 -34 44 -116 134 -183
200 -150 150 -201 194 -346 300 -41 31 -80 60 -87 65 -18 15 -167 110 -258
165 -141 85 -362 196 -550 274 -11 5 -31 13 -45 20 -78 35 -404 140 -480 155
-14 2 -59 11 -100 20 -41 8 -99 18 -129 21 -30 4 -61 8 -70 9 -9 2 -32 0 -51
-4z m2093 -2964 c137 -44 286 -167 365 -301 181 -310 128 -732 -122 -969 -91
-86 -203 -142 -332 -164 -204 -35 -431 70 -570 265 -112 156 -168 384 -139
568 3 22 8 49 10 60 11 71 57 185 105 260 92 147 233 252 387 289 72 18 230
13 296 -8z m2127 -6 c92 -31 200 -101 265 -172 326 -361 240 -967 -170 -1192
-124 -68 -319 -84 -452 -37 -65 24 -159 80 -214 128 -92 82 -176 229 -214 375
-20 78 -23 112 -20 213 3 130 6 149 36 239 78 233 254 406 463 457 93 23 219
18 306 -11z"/>
</g>
</svg>
